<svg width="900" height="620" viewBox="0 0 900 620" role="img" aria-labelledby="title desc" xmlns="http://www.w3.org/2000/svg">
  <title id="title">Everything_mew mascot icon with title</title>
  <desc id="desc">A cute white cat mascot icon with the text Everything_mew and the subtitle Low-token path discovery.</desc>
  <defs>
    <linearGradient id="bg" x1="94" y1="42" x2="805" y2="598" gradientUnits="userSpaceOnUse">
      <stop offset="0" stop-color="#FFF8FC"/>
      <stop offset=".56" stop-color="#F4F2FF"/>
      <stop offset="1" stop-color="#EDF9FF"/>
    </linearGradient>
    <filter id="softShadow" x="-20%" y="-20%" width="140%" height="140%">
      <feDropShadow dx="0" dy="14" stdDeviation="18" flood-color="#796A91" flood-opacity=".2"/>
    </filter>
  </defs>

  <rect width="900" height="620" rx="92" fill="url(#bg)"/>
  <g opacity=".52" stroke="#D8D4F4" stroke-width="3">
    <path d="M60 88h780M60 168h780M60 248h780M60 328h780M60 408h780M60 488h780"/>
    <path d="M100 48v500M190 48v500M280 48v500M370 48v500M460 48v500M550 48v500M640 48v500M730 48v500M820 48v500"/>
  </g>

  <g filter="url(#softShadow)">
    <rect x="178" y="44" width="544" height="404" rx="84" fill="#FFFFFF" opacity=".68"/>
    <image href="everything-mew-icon.png" x="230" y="4" width="440" height="440" preserveAspectRatio="xMidYMid meet"/>
  </g>

  <g fill="none" stroke-linecap="round" stroke-linejoin="round" opacity=".78">
    <path d="M151 108l8 16 18 4-14 11 2 18-15-10-17 7 5-18-12-14 18-1z" fill="#FFE7A8" stroke="#FFD17D" stroke-width="5"/>
    <path d="M743 172c19 4 33 18 38 37" stroke="#FFD6EA" stroke-width="7"/>
    <path d="M121 377c17-4 33 3 44 16" stroke="#BFEAFF" stroke-width="7"/>
    <circle cx="760" cy="376" r="9" fill="#C9EFFF" stroke="none"/>
    <circle cx="181" cy="450" r="8" fill="#FFC9DC" stroke="none"/>
  </g>

  <g font-family="Segoe UI, Pretendard, Noto Sans KR, Arial, sans-serif" text-anchor="middle">
    <text x="450" y="515" fill="#564A68" font-size="58" font-weight="850">Everything_mew</text>
    <text x="450" y="562" fill="#9285A5" font-size="28" font-weight="750">Low-token path discovery</text>
  </g>
</svg>
